<?xml version="1.0" encoding="utf-8"?>
<!-- Generator: Adobe Illustrator 23.0.2, SVG Export Plug-In . SVG Version: 6.00 Build 0)  -->
<svg version="1.1" id="Layer_1" xmlns="http://www.w3.org/2000/svg" xmlns:xlink="http://www.w3.org/1999/xlink" x="0px" y="0px"
	 viewBox="0 0 35 35" style="enable-background:new 0 0 35 35;" xml:space="preserve">
<style type="text/css">
	.st0{fill:#FFFFFF;}
</style>
<g>
	<circle class="st0" cx="17.48" cy="11.25" r="4.88"/>
	<path class="st0" d="M17.5,0C7.85,0,0,7.85,0,17.5C0,27.15,7.85,35,17.5,35S35,27.15,35,17.5C35,7.85,27.15,0,17.5,0z M24.88,31.13
		c0-0.17,0.01-0.34,0.01-0.51c0-7.45-3.31-13.5-7.4-13.5c-4.08,0-7.4,6.04-7.4,13.5c0,0.17,0.01,0.34,0.01,0.51
		C5.29,28.5,2,23.38,2,17.5C2,8.95,8.95,2,17.5,2S33,8.95,33,17.5C33,23.38,29.71,28.5,24.88,31.13z"/>
</g>
</svg>
