<?xml version="1.0" encoding="utf-8"?>
<!-- Generator: Adobe Illustrator 23.0.2, SVG Export Plug-In . SVG Version: 6.00 Build 0)  -->
<svg version="1.1" id="Layer_1" xmlns="http://www.w3.org/2000/svg" xmlns:xlink="http://www.w3.org/1999/xlink" x="0px" y="0px"
	 viewBox="0 0 41 27" style="enable-background:new 0 0 41 27;" xml:space="preserve">
<style type="text/css">
	.st0{fill:#0C1525;}
</style>
<g>
	<path class="st0" d="M41,4.41c0,2.44-4.47,8.23-4.47,8.23s-4.47-5.79-4.47-8.23S34.07,0,36.53,0C39,0,41,1.98,41,4.41z M36.53,2.01
		c-1.35,0-2.44,1.08-2.44,2.41s1.09,2.41,2.44,2.41s2.44-1.08,2.44-2.41S37.88,2.01,36.53,2.01z"/>
	<path class="st0" d="M16.31,11.19c0,4.45-8.16,15.02-8.16,15.02S0,15.64,0,11.19s3.65-8.06,8.16-8.06S16.31,6.74,16.31,11.19z
		 M8.16,6.79c-2.46,0-4.45,1.97-4.45,4.4s1.99,4.4,4.45,4.4s4.45-1.97,4.45-4.4S10.61,6.79,8.16,6.79z"/>
	<g>
		<path class="st0" d="M9.99,27c-0.07,0-0.11-0.01-0.16-0.02l0.16-0.77l-0.03-0.78c0.09-0.01,0.32-0.05,0.65-0.12l0.31,1.53
			C10.36,26.97,10.13,27,9.99,27z"/>
		<path class="st0" d="M12.51,26.51l-0.36-1.52c0.47-0.11,0.99-0.24,1.54-0.38l0.4,1.52C13.52,26.27,12.99,26.39,12.51,26.51z
			 M15.65,25.7l-0.43-1.51c0.5-0.14,1.01-0.29,1.52-0.44l0.46,1.5C16.68,25.41,16.16,25.56,15.65,25.7z M18.76,24.76l-0.51-1.48
			c0.5-0.17,1-0.34,1.48-0.52l0.56,1.46C19.8,24.4,19.28,24.58,18.76,24.76z M21.82,23.6l-0.64-1.43c0.51-0.23,0.98-0.45,1.38-0.67
			l0.77,1.37C22.89,23.11,22.38,23.35,21.82,23.6z M24.79,21.91l-1.01-1.21c0.5-0.41,0.63-0.69,0.66-0.82l1.55,0.34
			C25.85,20.81,25.46,21.36,24.79,21.91z M24.09,19.26c-0.19-0.16-0.44-0.33-0.75-0.5l-0.47-0.25l0.78-1.36l0.45,0.24
			c0.41,0.22,0.76,0.46,1.04,0.7L24.09,19.26z M21.46,17.67c-0.54-0.34-1-0.67-1.38-0.98l1.01-1.2c0.33,0.27,0.74,0.56,1.22,0.87
			L21.46,17.67z M18.83,15.28c-0.18-0.33-0.26-0.65-0.26-0.97c0-0.37,0.13-0.93,0.74-1.41l1,1.22c-0.07,0.05-0.15,0.13-0.15,0.2
			c0,0.03,0.01,0.1,0.08,0.23L18.83,15.28z M21.46,13.62l-0.42-1.51c0.48-0.13,1.04-0.24,1.67-0.33l0.23,1.55
			C22.37,13.41,21.87,13.5,21.46,13.62z M24.48,13.16l-0.12-1.56c0.53-0.04,1.08-0.07,1.63-0.09l0.06,1.56
			C25.51,13.09,24.99,13.12,24.48,13.16z M32.39,13.15c-0.48-0.02-1.02-0.05-1.59-0.07l0.05-1.56c0.58,0.02,1.13,0.04,1.62,0.07
			L32.39,13.15z M29.22,13.04c-0.35,0-0.71-0.01-1.07-0.01l-0.52,0l-0.01-1.56l0.53,0c0.37,0,0.73,0,1.09,0.01L29.22,13.04z"/>
		<path class="st0" d="M34.78,13.3c0,0-0.29-0.02-0.78-0.06l0.11-1.56c0.51,0.03,0.8,0.06,0.8,0.06L34.78,13.3z"/>
	</g>
</g>
</svg>
