<?xml version="1.0" encoding="utf-8"?>
<!-- Generator: Adobe Illustrator 23.0.2, SVG Export Plug-In . SVG Version: 6.00 Build 0)  -->
<svg version="1.1" id="Layer_1" xmlns="http://www.w3.org/2000/svg" xmlns:xlink="http://www.w3.org/1999/xlink" x="0px" y="0px"
	 viewBox="0 0 35 27" style="enable-background:new 0 0 35 27;" xml:space="preserve">
<style type="text/css">
	.st0{fill:#0C1525;}
</style>
<g>
	<path class="st0" d="M21.58,10.51l1.35-0.4c0.24,0.52,0.43,1.04,0.59,1.57l-1.3,0.55c0.09,0.34,0.17,0.68,0.23,1.02l1.42-0.02
		c0.09,0.56,0.13,1.11,0.14,1.67l-1.41,0.19c0,0.35-0.02,0.71-0.06,1.06l1.37,0.36c-0.07,0.55-0.18,1.1-0.32,1.64l-1.4-0.2
		c-0.1,0.34-0.21,0.68-0.35,1.01l1.22,0.72c-0.22,0.51-0.47,1.01-0.75,1.49l-1.3-0.57c-0.19,0.3-0.39,0.6-0.62,0.88l0.99,1.02
		c-0.35,0.43-0.72,0.84-1.13,1.23l-1.09-0.89c-0.27,0.24-0.55,0.47-0.84,0.69l0.67,1.24c-0.23,0.16-0.46,0.32-0.7,0.46
		c-0.24,0.15-0.48,0.28-0.73,0.41l-0.81-1.15c-0.33,0.16-0.66,0.31-0.99,0.44l0.31,1.37c-0.53,0.19-1.07,0.34-1.61,0.45l-0.47-1.33
		c-0.36,0.07-0.71,0.12-1.07,0.15l-0.07,1.41c-0.56,0.04-1.12,0.04-1.68,0l-0.09-1.41c-0.36-0.03-0.71-0.08-1.06-0.15l-0.45,1.34
		c-0.55-0.11-1.09-0.27-1.62-0.45l0.3-1.38c-0.33-0.13-0.66-0.27-0.97-0.43l-0.8,1.17c-0.5-0.26-0.98-0.55-1.44-0.87l0.66-1.25
		c-0.28-0.21-0.55-0.43-0.81-0.67l-1.08,0.9C3.38,23.38,3,22.97,2.64,22.53l0.97-1.02c-0.21-0.27-0.41-0.56-0.59-0.85l-1.28,0.58
		c-0.3-0.49-0.55-0.99-0.77-1.5l1.22-0.73c-0.13-0.32-0.24-0.64-0.34-0.96l-1.4,0.21c-0.15-0.55-0.27-1.1-0.34-1.65l1.37-0.37
		c-0.04-0.34-0.06-0.67-0.06-1.01L0,15.05c0-0.57,0.04-1.13,0.12-1.69l1.42,0.01c0.05-0.33,0.12-0.66,0.21-0.98l-1.31-0.54
		c0.15-0.54,0.34-1.08,0.57-1.6l1.36,0.39c0.14-0.3,0.29-0.6,0.46-0.88L1.72,8.89C2.02,8.41,2.34,7.95,2.7,7.51l1.21,0.74
		c0.21-0.25,0.44-0.49,0.68-0.72L3.75,6.38C4.16,6,4.6,5.64,5.07,5.31l0.97,1.04C6.17,6.26,6.3,6.16,6.45,6.07
		c0.14-0.09,0.29-0.16,0.43-0.24l-0.5-1.33c0.51-0.27,1.03-0.5,1.56-0.69l0.65,1.26C8.9,4.97,9.22,4.87,9.54,4.8L9.42,3.4
		c0.56-0.12,1.12-0.2,1.69-0.25l0.28,1.37c0.33-0.02,0.67-0.02,1-0.01l0.27-1.38c0.57,0.03,1.13,0.1,1.69,0.21l-0.1,1.4
		c0.33,0.07,0.65,0.16,0.97,0.26l0.63-1.26c0.54,0.18,1.06,0.4,1.57,0.65l-0.48,1.33c0.3,0.16,0.59,0.33,0.88,0.51l0.95-1.05
		c0.47,0.31,0.91,0.66,1.33,1.04l-0.82,1.15c0.25,0.23,0.49,0.48,0.71,0.74l1.2-0.75c0.36,0.42,0.69,0.88,1,1.36l-1.1,0.88
		C21.26,9.9,21.43,10.2,21.58,10.51z M7.41,7.63c-4.13,2.53-5.42,7.91-2.88,12.02s7.95,5.39,12.08,2.86s5.42-7.91,2.88-12.02
		S11.54,5.1,7.41,7.63z"/>
	<path class="st0" d="M33.48,4.5l1.06-0.18c0.17,0.42,0.29,0.85,0.37,1.28l-1,0.35c0.05,0.31,0.07,0.62,0.06,0.93L35,7.16
		c-0.02,0.44-0.09,0.88-0.2,1.31l-1.06-0.08c-0.09,0.31-0.2,0.61-0.34,0.9l0.84,0.66c-0.2,0.39-0.44,0.76-0.72,1.1l-0.93-0.5
		c-0.21,0.25-0.45,0.47-0.7,0.69l0.49,0.94c-0.17,0.13-0.35,0.26-0.54,0.38c-0.19,0.12-0.38,0.23-0.57,0.32l-0.65-0.84
		c-0.3,0.14-0.61,0.26-0.92,0.35l0.06,1.05c-0.43,0.1-0.87,0.16-1.31,0.18l-0.25-1.03c-0.32,0-0.65-0.02-0.96-0.07l-0.37,0.99
		c-0.44-0.08-0.86-0.21-1.27-0.37l0.19-1.04c-0.29-0.13-0.56-0.28-0.82-0.45l-0.74,0.75c-0.36-0.25-0.7-0.54-1.01-0.87l0.61-0.88
		c-0.2-0.22-0.38-0.46-0.55-0.71l-0.98,0.38c-0.24-0.39-0.43-0.8-0.58-1.21l0.91-0.56c-0.09-0.28-0.16-0.55-0.2-0.84l-1.06-0.05
		c-0.06-0.45-0.07-0.9-0.03-1.35l1.06-0.14c0.03-0.27,0.09-0.54,0.16-0.81l-0.95-0.47c0.13-0.44,0.3-0.86,0.52-1.26l1.03,0.3
		c0.13-0.23,0.29-0.45,0.45-0.66l-0.68-0.82c0.29-0.34,0.62-0.66,0.98-0.95l0.82,0.69c0.11-0.08,0.21-0.16,0.32-0.23
		c0.11-0.07,0.23-0.13,0.35-0.2l-0.29-1.03c0.42-0.21,0.85-0.37,1.28-0.49l0.46,0.96c0.26-0.06,0.53-0.11,0.8-0.13l0.16-1.05
		c0.46-0.02,0.92,0,1.37,0.07l0.03,1.06c0.27,0.05,0.54,0.11,0.8,0.2l0.57-0.89c0.42,0.16,0.83,0.36,1.22,0.6l-0.4,0.97
		c0.24,0.16,0.46,0.34,0.68,0.53l0.89-0.59c0.32,0.31,0.61,0.65,0.86,1.03l-0.76,0.72C33.22,3.96,33.36,4.23,33.48,4.5z M26.65,4.47
		c-1.31,0.83-1.7,2.57-0.86,3.87s2.58,1.69,3.89,0.85c1.31-0.83,1.7-2.57,0.86-3.87S27.96,3.63,26.65,4.47z"/>
</g>
</svg>
