<?xml version="1.0" encoding="utf-8"?>
<!-- Generator: Adobe Illustrator 23.0.2, SVG Export Plug-In . SVG Version: 6.00 Build 0)  -->
<svg version="1.1" id="Layer_1" xmlns="http://www.w3.org/2000/svg" xmlns:xlink="http://www.w3.org/1999/xlink" x="0px" y="0px"
	 viewBox="0 0 69 58" style="enable-background:new 0 0 69 58;" xml:space="preserve">
<style type="text/css">
	.st0{fill:#FCEE23;}
</style>
<g>
	<path class="st0" d="M37.64,18.55c-2.57,2.26-5.14,4.45-7.74,6.71c0.34,0.31,0.69,0.57,1.03,0.84c1.69,1.38,3.33,2.8,5.06,4.18
		c1.07,0.88,2.15,1.72,3.26,2.57c1.42,1.11,1.88,2.57,1.19,4.25c-1.84,4.56-3.72,9.12-5.56,13.65c-0.77,1.84-2.64,2.64-4.41,1.95
		c-1.69-0.69-2.49-2.68-1.8-4.33c1.26-3.03,2.49-6.06,3.72-9.08c0.31-0.73,0.61-1.49,0.92-2.22c0.11-0.27,0.08-0.42-0.15-0.61
		c-2.18-1.76-4.37-3.53-6.55-5.33c-1.34-1.11-2.72-2.18-4.06-3.33c-1.46-1.19-1.49-3.56-0.04-4.83c1.65-1.49,3.37-2.95,5.06-4.45
		c2.68-2.3,5.37-4.64,8.01-6.94c0.73-0.57,1.42-1.19,2.38-1.26c1.34-0.11,2.41,0.34,3.14,1.46c1.42,2.15,2.8,4.29,4.22,6.44
		c0.08,0.15,0.31,0.27,0.46,0.31c2.11,0.34,4.25,0.69,6.36,1.03c1.8,0.31,3.03,1.99,2.72,3.87c-0.27,1.65-1.95,2.91-3.68,2.68
		c-2.72-0.46-5.48-0.92-8.24-1.38c-1.03-0.15-1.76-0.77-2.3-1.65C39.67,21.58,38.68,20.13,37.64,18.55z"/>
	<path class="st0" d="M28.52,43.78C28.48,51.63,22.12,58,14.3,58C6.25,58-0.11,51.4,0,43.47c0.11-7.7,6.52-14.03,14.34-13.99
		C22.2,29.56,28.56,35.96,28.52,43.78z M25.76,43.78c0-6.32-5.14-11.5-11.46-11.54c-6.36,0-11.58,5.17-11.54,11.54
		s5.14,11.46,11.5,11.5C20.59,55.28,25.76,50.1,25.76,43.78z"/>
	<path class="st0" d="M40.48,43.74c0-7.9,6.4-14.22,14.26-14.26S69.11,35.96,69,43.97C68.88,51.63,62.48,58.04,54.74,58
		C46.84,58,40.48,51.6,40.48,43.74z M54.7,55.28c6.32,0,11.46-5.02,11.54-11.31c0.08-6.48-5.06-11.65-11.46-11.69
		c-6.25-0.04-11.5,5.1-11.54,11.35C43.2,50.02,48.3,55.24,54.7,55.28z"/>
	<path class="st0" d="M47.8,0c3.45,0,6.17,2.8,6.17,6.25c0,3.37-2.8,6.17-6.13,6.17c-3.68,0-6.29-2.99-6.25-6.29
		C41.59,2.76,44.35,0,47.8,0z"/>
</g>
</svg>
