<?xml version="1.0" encoding="utf-8"?>
<!-- Generator: Adobe Illustrator 23.0.2, SVG Export Plug-In . SVG Version: 6.00 Build 0)  -->
<svg version="1.1" id="Layer_1" xmlns="http://www.w3.org/2000/svg" xmlns:xlink="http://www.w3.org/1999/xlink" x="0px" y="0px"
	 viewBox="0 0 23 27" style="enable-background:new 0 0 23 27;" xml:space="preserve">
<style type="text/css">
	.st0{fill:#0C1525;}
</style>
<g>
	<path class="st0" d="M9.68,3.45C8.2,3.2,7.54,2.6,7.61,1.58C7.69,0.52,8.44,0,9.94,0c1.09,0,2.19,0,3.28,0
		c1.31,0,2.05,0.54,2.13,1.54c0.08,1.06-0.56,1.69-1.9,1.85c-0.05,0.01-0.09,0.04-0.19,0.07c0,0.34,0,0.7,0,0.94
		c1.75,0.72,3.46,1.42,5.3,2.18c0.48-0.38,0.99-1.22,2-1.02c0.38,0.07,0.79,0.25,1.06,0.51c0.8,0.75,0.6,1.53-0.76,3.16
		c1.01,1.46,1.71,3.06,1.99,4.83C23.96,20.83,18.42,27.1,11.4,27c-5.76-0.08-10.71-4.36-11.32-9.78C-0.59,11.28,3.14,6.09,9.02,4.78
		C9.83,4.6,9.83,4.59,9.68,3.45z M19.51,15.76c0-4.36-3.63-7.91-8.05-7.88c-4.42,0.03-8.02,3.54-8.02,7.85
		c-0.01,4.32,3.66,7.91,8.06,7.89C15.92,23.6,19.51,20.08,19.51,15.76z"/>
	<path class="st0" d="M12.58,14.93c1.12,0.29,2.15,0.54,3.18,0.82c0.92,0.25,1.38,0.94,1.16,1.7c-0.23,0.79-0.94,1.16-1.87,0.93
		c-1.35-0.33-2.7-0.68-4.05-1.04c-0.85-0.23-1.18-0.65-1.18-1.5c-0.01-1.74-0.01-3.48,0-5.22c0.01-0.88,0.58-1.46,1.38-1.45
		c0.79,0.01,1.36,0.6,1.38,1.48C12.59,12.05,12.58,13.47,12.58,14.93z"/>
</g>
</svg>
