<?xml version="1.0" encoding="utf-8"?>
<!-- Generator: Adobe Illustrator 23.0.2, SVG Export Plug-In . SVG Version: 6.00 Build 0)  -->
<svg version="1.1" id="Layer_1" xmlns="http://www.w3.org/2000/svg" xmlns:xlink="http://www.w3.org/1999/xlink" x="0px" y="0px"
	 viewBox="0 0 45 38" style="enable-background:new 0 0 45 38;" xml:space="preserve">
<style type="text/css">
	.st0{fill:#FFFFFF;}
</style>
<g>
	<path class="st0" d="M15.74,24.58c0.06-1.78,0.42-3.44,1.21-4.99c2.14-4.21,6.63-6.62,11.38-6.1c4.64,0.51,8.53,3.9,9.65,8.47
		c0.09,0.38,0.26,0.49,0.62,0.56c3.73,0.66,6.43,3.97,6.39,7.81c-0.04,3.71-2.85,6.96-6.53,7.55c-0.43,0.07-0.87,0.12-1.31,0.12
		c-7.13,0.01-14.26,0.01-21.39,0c-3.15-0.01-5.85-2.11-6.57-5.07c-1-4.09,1.84-7.94,6.12-8.3C15.45,24.61,15.57,24.6,15.74,24.58z
		 M26.46,35.82C26.46,35.82,26.46,35.82,26.46,35.82c3.57,0,7.15,0.03,10.72-0.01c2.97-0.03,5.45-2.36,5.61-5.16
		c0.18-3.1-1.93-5.75-4.99-6.03c-1.45-0.13-1.62-0.36-1.88-1.75c-0.75-4.08-4.24-7.02-8.54-7.25c-4.03-0.22-7.83,2.44-9.03,6.31
		c-0.37,1.2-0.43,2.43-0.42,3.68c0.01,0.76-0.41,1.16-1.17,1.18c-0.32,0.01-0.63,0-0.95,0c-2.59,0.02-4.64,2.02-4.64,4.53
		c0.01,2.5,2.07,4.5,4.66,4.51C19.39,35.82,22.93,35.82,26.46,35.82z"/>
	<path class="st0" d="M16.9,8.95c1.65,0,3.14,0.49,4.49,1.44c0.61,0.43,0.77,1.06,0.41,1.58c-0.36,0.54-1.03,0.62-1.66,0.21
		c-3.75-2.48-8.48-0.3-8.91,4.15c-0.17,1.78,0.51,3.28,1.81,4.51c0.1,0.1,0.21,0.18,0.31,0.28c0.45,0.45,0.49,1.05,0.1,1.51
		c-0.39,0.46-1.06,0.52-1.56,0.12c-1.26-1.03-2.13-2.31-2.58-3.87C7.89,13.86,11.64,8.95,16.9,8.95z"/>
	<path class="st0" d="M17.95,3.3c0,0.73,0.01,1.47,0,2.2c-0.01,0.68-0.43,1.12-1.05,1.13c-0.64,0.01-1.12-0.43-1.13-1.12
		c-0.02-1.47-0.02-2.94,0-4.41C15.77,0.44,16.23,0,16.85,0c0.65,0,1.08,0.44,1.09,1.15C17.95,1.86,17.95,2.58,17.95,3.3z"/>
	<path class="st0" d="M3.35,15.67c0.74,0,1.48-0.01,2.22,0c0.65,0.01,1.08,0.42,1.1,1.03c0.02,0.62-0.41,1.13-1.06,1.14
		c-1.51,0.02-3.03,0.02-4.54,0c-0.65-0.01-1.08-0.5-1.07-1.12c0.01-0.62,0.45-1.04,1.13-1.04C1.87,15.66,2.61,15.67,3.35,15.67z"/>
	<path class="st0" d="M7.67,8.87C7.54,8.8,7.23,8.7,7.02,8.5C6.29,7.81,5.59,7.1,4.88,6.39C4.4,5.89,4.37,5.24,4.81,4.8
		c0.45-0.46,1.08-0.46,1.6,0.03c0.75,0.72,1.48,1.45,2.2,2.19c0.33,0.34,0.44,0.75,0.24,1.2C8.66,8.64,8.32,8.85,7.67,8.87z"/>
	<path class="st0" d="M25.76,8.98c-0.29-0.24-0.72-0.43-0.84-0.74c-0.12-0.32-0.08-0.86,0.13-1.11c0.74-0.86,1.57-1.65,2.41-2.42
		c0.42-0.39,1.03-0.33,1.44,0.06c0.42,0.4,0.49,1.03,0.08,1.47c-0.77,0.82-1.57,1.6-2.39,2.37C26.41,8.77,26.12,8.82,25.76,8.98z"/>
	<path class="st0" d="M5.74,29.01c-0.58,0.01-0.99-0.17-1.1-0.58c-0.09-0.35-0.1-0.88,0.1-1.11c0.76-0.87,1.6-1.67,2.44-2.46
		c0.42-0.39,1.04-0.31,1.43,0.08c0.4,0.4,0.48,1.01,0.09,1.43c-0.79,0.84-1.63,1.65-2.47,2.44C6.09,28.95,5.83,28.98,5.74,29.01z"/>
</g>
</svg>
